<svg width="76" height="21" viewBox="0 0 76 21" fill="none" xmlns="http://www.w3.org/2000/svg">
<g clip-path="url(#clip0_1935_5545)">
<path d="M62.5337 9.61659C61.5455 8.51566 59.5052 7.79143 57.0147 9.37783C55.3447 10.4416 54.3192 12.0068 54.0475 13.9063C54.0209 14.0867 54.0049 14.2644 53.9916 14.4395H52.4494L55.4219 6.95312H52.223L46.7227 20.8037H49.9216L51.2907 17.3576H54.2872C54.5749 18.1747 54.9824 18.9599 55.4379 19.4295C56.7324 20.7586 58.0482 20.9973 59.4066 20.9973C60.1658 20.9973 61.13 20.6976 61.5695 20.3447L60.7544 18.2463C59.5132 18.6469 58.2586 18.4506 57.7259 17.6203C57.6593 17.5141 57.5421 17.3284 57.4782 17.095C60.5413 16.4557 62.1182 14.8082 62.5923 14.2219C63.7136 12.8398 63.687 10.9006 62.5284 9.61129L62.5337 9.61659ZM60.3202 12.3915C59.5398 13.3545 58.2506 13.9222 56.9668 14.206C57.1399 13.2112 57.686 12.4127 58.5942 11.8344C59.071 11.532 59.5158 11.3728 59.8541 11.3728C60.0645 11.3728 60.2377 11.4338 60.3495 11.5585C60.512 11.7389 60.5733 12.0784 60.3202 12.3888V12.3915Z" fill="#304859"/>
<path d="M28.6361 17.9383C28.4203 17.6942 28.4869 17.222 28.732 16.6463C28.7426 16.6171 28.7692 16.5588 28.7985 16.4792C28.8145 16.4367 28.8332 16.397 28.8491 16.3572L31.0067 10.9002H27.8583L27.7358 11.208C27.1365 11.0488 26.5851 10.9533 26.071 10.9002C25.4717 10.8392 24.9257 10.8445 24.4276 10.9002C22.5365 11.1151 21.3245 12.0595 20.4855 12.9138C19.4627 13.9563 18.3253 15.8133 18.4931 17.6067C18.5944 18.6943 19.1431 19.6175 20.0806 20.2701C20.7678 20.7503 21.6495 20.997 22.6004 20.997C23.1677 20.997 23.7617 20.9095 24.3504 20.7291C25.0482 20.5168 25.7008 20.1852 26.2894 19.7555C26.3241 19.8006 26.3614 19.8483 26.3987 19.8908C27.0779 20.6627 27.8636 20.9917 28.9557 20.9917C29.539 20.9917 30.3647 20.6495 30.7003 20.3391L29.7335 18.1346C29.1182 18.3839 28.8119 18.1346 28.6334 17.933L28.6361 17.9383ZM23.498 17.9409C22.6537 18.1982 22.0011 18.047 21.7667 17.8852C21.4843 17.6862 21.4284 17.5058 21.4151 17.3387C21.3512 16.6596 21.9611 15.5931 22.5871 14.9538C23.0346 14.4975 23.7431 13.7759 25.2666 13.7759C25.6688 13.7759 26.1296 13.8263 26.657 13.9457L26.1216 15.2987C25.4185 17.1185 24.1772 17.7366 23.498 17.9409Z" fill="#304859"/>
<path d="M69.6853 6.78628C69.3923 6.56078 69.0141 6.44141 68.5932 6.44141C67.7382 6.44141 67.2721 6.78097 67.0324 7.06483C66.7287 7.42562 66.5742 7.82089 66.5742 8.23739C66.5742 8.77857 66.8299 9.09691 67.0457 9.26935C67.3413 9.50545 67.7142 9.63014 68.1298 9.63014C69.0007 9.63014 69.4695 9.29057 69.7093 9.00672C70.0129 8.64593 70.1674 8.25065 70.1674 7.83416C70.1674 7.2744 69.9064 6.95871 69.6879 6.78893L69.6853 6.78628Z" fill="#304859"/>
<path d="M67.2844 15.1054C67.9476 13.4288 68.8932 11.0333 68.9438 10.9033H65.7955C65.1908 12.4367 64.1174 15.1505 63.7765 16.0127C63.7711 16.0233 63.7685 16.0339 63.7658 16.0446C63.2837 17.2702 63.4595 18.8805 64.3571 19.8965C65.0363 20.6685 65.8194 20.9974 66.9142 20.9974C67.4975 20.9974 68.3232 20.6552 68.6588 20.3448L67.6919 18.1403C67.0766 18.3897 66.7703 18.1403 66.5919 17.9387C66.3761 17.6946 66.4001 17.2967 66.6451 16.721C66.7064 16.5751 67.0953 15.5883 67.2844 15.1028V15.1054Z" fill="#304859"/>
<path d="M73.2285 15.5541C73.2817 15.4188 73.3377 15.2782 73.3936 15.1349H74.7653L76.0012 12.6492H74.3765C74.6588 11.9382 75.037 10.962 75.061 10.9062H71.9127C71.308 12.4396 70.2346 15.1535 69.8937 16.0156C69.8883 16.0263 69.8857 16.0369 69.883 16.0475C69.4009 17.2731 69.5767 18.8834 70.4743 19.8994C71.1535 20.6714 71.9366 21.0004 73.0314 21.0004C73.6147 21.0004 74.4404 20.6581 74.776 20.3478L73.8091 18.1432C73.1938 18.3926 72.8875 18.1432 72.7091 17.9416C72.4933 17.6976 72.5173 17.2996 72.7623 16.724C72.8236 16.5781 73.0393 16.0422 73.2285 15.5541Z" fill="#304859"/>
<path d="M45.2979 10.9004C44.7546 12.2799 43.9608 14.3173 43.5693 15.2882C42.7222 17.384 41.9338 18.27 40.9297 18.0392C40.618 17.9676 40.5301 17.7713 40.4795 17.6599C40.317 17.2938 40.3889 16.6916 40.6793 16.0045C41.236 14.5772 42.3174 11.8501 42.6929 10.9004H39.5419C38.9959 12.2799 38.1835 14.3067 37.8133 15.2882C37.0675 17.2646 36.1672 18.1825 35.1736 18.0392C34.8567 17.9941 34.7714 17.7713 34.7235 17.6599C34.561 17.2938 34.6356 16.6916 34.9233 16.0045C35.4746 14.6887 36.5374 11.8979 36.9156 10.9004H33.7806C33.3012 12.1525 32.6113 13.9406 32.2171 14.8797C31.6018 16.344 31.5432 17.7129 32.0413 18.8404C32.4435 19.7477 33.2053 20.4374 34.1855 20.7876C34.5957 20.9335 34.9979 20.9998 35.3867 20.9998C36.4895 20.9998 37.491 20.4613 38.3273 19.6813C38.7428 20.1748 39.2915 20.5568 39.9415 20.7876C40.3517 20.9335 40.7539 20.9998 41.1427 20.9998C43.5746 20.9998 45.5084 18.3841 46.2994 16.3414C46.7975 15.0574 48.0361 11.9324 48.4436 10.9004H45.2953H45.2979Z" fill="#304859"/>
<path d="M22.4647 5.56341C21.7855 1.53372 16.3358 -0.798136 10.0551 0.252394C3.77699 1.30292 -0.609929 5.28221 0.0692842 9.31189C0.338306 10.901 1.33981 12.2645 2.96726 13.2593L4.63999 10.5481C4.06998 10.2006 3.36147 9.61167 3.22297 8.78398C2.90067 6.87127 5.84393 4.18392 10.5878 3.39072C15.3289 2.59752 18.994 4.17597 19.3163 6.09133C19.4682 6.9986 18.8875 8.07566 17.7182 9.04926C16.3145 10.2192 14.2129 11.1052 11.9515 11.4846C11.3735 11.5801 10.8035 11.6438 10.2388 11.6729L11.3442 8.92988H7.90022L5.6415 14.5433L7.72708 14.7768C8.3184 14.8431 8.91771 14.8776 9.52767 14.8749C10.4972 14.8749 11.4827 14.7927 12.4816 14.6256C15.3289 14.1507 17.9153 13.0365 19.7691 11.4925C21.8601 9.74961 22.8189 7.6459 22.4673 5.56341H22.4647Z" fill="#5BA344"/>
<path d="M5.02734 16.042L3.04297 21.0002H6.50829L8.49266 16.042H5.02734Z" fill="#304859"/>
</g>
<defs>
<clipPath id="clip0_1935_5545">
<rect width="76" height="21" fill="white"/>
</clipPath>
</defs>
</svg>
