<svg width="91" height="20" viewBox="0 0 91 20" fill="none" xmlns="http://www.w3.org/2000/svg">
<g clip-path="url(#clip0_62_13624)">
<path d="M16.3566 4.23142L9.55223 0.305847C8.97647 -0.00819894 8.29604 -0.00819894 7.72029 0.305847L0.915967 4.23142C0.340216 4.54546 0 5.17356 0 5.82782V13.679C0 14.3332 0.340216 14.9351 0.915967 15.2754L7.72029 19.2009C8.00817 19.358 8.32221 19.4365 8.63626 19.4365C8.9503 19.4365 9.26435 19.358 9.55223 19.2009L11.4103 18.1306L12.5854 19.0701C12.9936 19.3946 13.5589 19.4365 14.0091 19.1774L16.0059 18.0206C16.5738 17.6909 16.634 16.8953 16.1236 16.4844L15.349 15.859L16.3566 15.278C16.9323 14.9639 17.2725 14.3358 17.2725 13.6816V5.83044C17.2725 5.17617 16.9323 4.57425 16.3566 4.23404V4.23142Z" fill="#231F20"/>
<path d="M74.3246 1.45776C74.534 0.829671 74.9789 0.515625 75.6331 0.515625H77.5174C78.1717 0.515625 78.6166 0.829671 78.8259 1.45776L83.1702 14.1766C83.3011 14.5953 83.3011 14.9094 83.1179 15.1449C82.9347 15.3805 82.6468 15.5113 82.2281 15.5113H80.8411C80.1868 15.5113 79.7419 15.1973 79.5325 14.543L78.9044 12.3709H74.2461L73.618 14.543C73.4348 15.1711 73.0161 15.5113 72.3357 15.5113H70.9486C70.5299 15.5113 70.242 15.3805 70.0588 15.1449C69.8756 14.9094 69.8756 14.5953 70.0065 14.1766L74.3246 1.45776ZM78.0408 9.41359L77.2034 6.50866C77.1249 6.27313 77.0725 6.01143 76.994 5.72355C76.9417 5.43568 76.8631 5.1478 76.7846 4.88609C76.7061 4.57205 76.6538 4.258 76.5753 3.94396H76.5229C76.4444 4.258 76.3921 4.57205 76.3136 4.88609C76.2351 5.1478 76.1827 5.43568 76.1042 5.72355C76.0519 6.01143 75.9733 6.27313 75.8948 6.50866L75.0312 9.41359H78.0408Z" fill="#231F20"/>
<path d="M90.7855 14.0981L88.6395 10.251C88.5348 10.094 88.4563 9.96317 88.404 9.83232C88.3516 9.72763 88.2731 9.62295 88.2208 9.54444C88.1684 9.46593 88.1161 9.38742 88.0637 9.33508V9.28274C88.4301 9.09954 88.7703 8.86401 89.0582 8.54996C89.3461 8.23592 89.5816 7.92187 89.7648 7.55548C89.948 7.1891 90.0789 6.79654 90.1836 6.40398C90.2882 6.01143 90.3144 5.5927 90.3144 5.20014C90.3144 4.10098 90.0789 3.18501 89.5816 2.45224C89.0844 1.71947 88.404 1.16989 87.5665 0.855841C87.2525 0.724989 86.8861 0.646477 86.4412 0.594136C86.0224 0.541795 85.4205 0.515625 84.6616 0.515625H80.7884C80.5528 0.515625 80.3696 0.751159 80.4481 0.986694L81.2332 3.34204C81.2856 3.52523 81.4688 3.62991 81.652 3.62991L84.3475 3.65608C84.9495 3.65608 85.4205 3.73459 85.7346 3.86545C86.0748 3.9963 86.3103 4.20566 86.4412 4.49354C86.5459 4.75524 86.6244 5.09546 86.6244 5.46185C86.6244 6.06377 86.4673 6.50866 86.101 6.82271C85.7346 7.13676 85.2897 7.29378 84.7139 7.29378H83.039C82.8035 7.29378 82.6203 7.52931 82.6988 7.76485L83.4577 10.1464C83.5101 10.3296 83.6933 10.4604 83.8765 10.4604H84.8448L87.0693 14.7C87.3833 15.2496 87.8282 15.5113 88.4301 15.5113H90.0265C90.4714 15.5113 90.7855 15.3805 90.9425 15.1188C91.0472 14.8309 91.021 14.5168 90.7855 14.0981Z" fill="#231F20"/>
<path d="M31.6133 5.96009C31.6133 5.20115 32.0058 4.80859 32.7648 4.80859H34.0733C34.8322 4.80859 35.2248 5.20115 35.2248 5.96009V14.4393C35.2248 15.1983 34.8322 15.5908 34.0733 15.5908H32.7648C32.0058 15.5908 31.6133 15.1983 31.6133 14.4393V5.96009Z" fill="#231F20"/>
<path d="M18.8152 5.85463C18.8152 5.09568 19.2078 4.70312 19.9667 4.70312H21.2753C22.0342 4.70312 22.4268 5.09568 22.4268 5.85463V11.0364C22.4268 11.5336 22.5314 11.9 22.7146 12.1355C22.8978 12.3711 23.1857 12.4758 23.5783 12.4758C23.9446 12.4758 24.311 12.3972 24.5989 12.2402C24.8868 12.0832 25.1223 11.8738 25.3055 11.586C25.4887 11.3243 25.6196 11.0102 25.7242 10.6438C25.8028 10.2774 25.8551 9.91105 25.8551 9.49232V5.8808C25.8551 5.12185 26.2476 4.7293 27.0066 4.7293H28.3151C29.0741 4.7293 29.4666 5.12185 29.4666 5.8808V14.36C29.4666 15.119 29.0741 15.5115 28.3151 15.5115H27.1374C26.3785 15.5115 26.0121 15.119 26.0121 14.36V13.9936C26.0121 13.9413 26.0121 13.9151 26.0383 13.889H25.9859C25.6981 14.4647 25.227 14.9358 24.6251 15.2498C23.997 15.5639 23.3427 15.7471 22.61 15.7471C22.0865 15.7471 21.5893 15.6686 21.1182 15.5377C20.6472 15.4069 20.2546 15.1713 19.8882 14.8573C19.5218 14.5432 19.2601 14.1245 19.0769 13.6011C18.8676 13.0777 18.7891 12.4496 18.7891 11.6906V5.85463H18.8152Z" fill="#231F20"/>
<path d="M36.8203 14.335C36.8203 14.0472 36.8727 13.8378 36.925 13.6546C37.0035 13.4976 37.1344 13.2882 37.3176 13.0527L40.7721 8.76072C40.9029 8.6037 41.0338 8.44668 41.1384 8.342C41.2431 8.23731 41.3478 8.13263 41.4263 8.02795L41.688 7.76624V7.7139C41.6095 7.7139 41.531 7.74007 41.4525 7.74007C41.374 7.74007 41.2955 7.76624 41.1646 7.76624H38.1288C37.3699 7.76624 36.9773 7.37369 36.9773 6.61474V5.88197C36.9773 5.12303 37.3699 4.73047 38.1288 4.73047H45.4566C46.2155 4.73047 46.6081 5.01834 46.6081 5.62027V5.88197C46.6081 6.16985 46.5819 6.37921 46.5034 6.5624C46.4249 6.71943 46.294 6.92879 46.1108 7.16432L42.6825 11.5086C42.5517 11.6656 42.4208 11.8227 42.3161 11.9274C42.2114 12.032 42.1068 12.1367 42.0282 12.2414C41.9236 12.3461 41.8189 12.4246 41.7404 12.5031V12.5554C41.8189 12.5554 41.8974 12.5554 41.9759 12.5293C42.0544 12.5031 42.1329 12.5031 42.2638 12.5031H45.5874C46.3464 12.5031 46.7389 12.8957 46.7389 13.6546V14.3874C46.7389 15.1463 46.3464 15.5389 45.5874 15.5389H37.998C37.239 15.5389 36.8465 15.251 36.8465 14.6491V14.335H36.8203Z" fill="#231F20"/>
<path d="M47.7891 14.335C47.7891 14.0472 47.8414 13.8378 47.8937 13.6546C47.9723 13.4976 48.1031 13.2882 48.2863 13.0527L51.7408 8.76072C51.8717 8.6037 52.0025 8.44668 52.1072 8.342C52.2119 8.23731 52.3166 8.13263 52.3951 8.02795C52.4997 7.92327 52.5783 7.84476 52.6568 7.76624V7.7139C52.5783 7.7139 52.4997 7.74007 52.4212 7.74007C52.3427 7.74007 52.2642 7.76624 52.1334 7.76624H49.0714C48.3125 7.76624 47.9199 7.37369 47.9199 6.61474V5.88197C47.9199 5.12303 48.3125 4.73047 49.0714 4.73047H56.3991C57.1581 4.73047 57.5506 5.01834 57.5506 5.62027V5.88197C57.5506 6.16985 57.5245 6.37921 57.446 6.5624C57.3675 6.71943 57.2366 6.92879 57.0534 7.16432L53.6251 11.5086C53.4942 11.6656 53.3634 11.8227 53.2587 11.9274C53.154 12.032 53.0493 12.1367 52.9708 12.2414C52.8661 12.3461 52.7615 12.4246 52.6829 12.5031V12.5554C52.7615 12.5554 52.84 12.5554 52.9185 12.5293C52.997 12.5031 53.0755 12.5031 53.2064 12.5031H56.53C57.2889 12.5031 57.6815 12.8957 57.6815 13.6546V14.3874C57.6815 15.1463 57.2889 15.5389 56.53 15.5389H48.9406C48.1816 15.5389 47.7891 15.251 47.7891 14.6491V14.335Z" fill="#231F20"/>
<path d="M59.6693 16.8997C59.8787 16.8212 60.088 16.7951 60.2974 16.8474C60.3759 16.8736 60.4806 16.8997 60.5853 16.9259C60.69 16.9521 60.7946 16.9521 60.9255 16.9521C61.2395 16.9521 61.5536 16.8474 61.8153 16.6119C62.077 16.4025 62.2864 16.1146 62.4172 15.8006L62.6266 15.3033L58.6487 6.06516C58.4655 5.64644 58.4655 5.33239 58.6225 5.09686C58.7795 4.86132 59.0936 4.73047 59.5385 4.73047H61.161C61.8415 4.73047 62.2602 5.04451 62.4696 5.67261L63.7519 9.70286C63.8043 9.85988 63.8304 10.0169 63.8828 10.2263C63.9351 10.4356 63.9874 10.5927 64.0136 10.7759C64.066 10.9852 64.1183 11.1946 64.1445 11.3778H64.1968C64.2492 11.1684 64.2753 10.9852 64.3277 10.802C64.3538 10.645 64.38 10.4618 64.4323 10.2786C64.4847 10.0954 64.5109 9.93839 64.5632 9.78137L65.6624 5.75112C65.8455 5.09686 66.2904 4.75664 66.9709 4.75664H68.4888C68.9075 4.75664 69.1954 4.86132 69.3786 5.12303C69.5618 5.35856 69.5618 5.67261 69.4047 6.09133L65.4792 16.7165C65.2436 17.3185 64.9819 17.8157 64.6417 18.2344C64.3015 18.6532 63.9351 18.9934 63.5425 19.2289C63.15 19.4906 62.7313 19.6738 62.2864 19.7785C61.8415 19.8832 61.4227 19.9355 60.9778 19.9355C60.69 19.9355 60.4283 19.9093 60.1666 19.857C59.9048 19.8047 59.6693 19.7523 59.46 19.6738C59.1197 19.5691 58.8842 19.3598 58.8057 19.0981C58.7272 18.8102 58.7534 18.5223 58.9104 18.1821L59.1721 17.5802C59.3029 17.1876 59.4861 16.9783 59.6693 16.8997Z" fill="#231F20"/>
<path d="M13.0597 6.82057L8.97707 4.46523C8.87239 4.41289 8.76771 4.38672 8.63685 4.38672C8.53217 4.38672 8.40132 4.41289 8.29664 4.46523L4.18787 6.82057C3.97851 6.92526 3.84766 7.16079 3.84766 7.39632V12.1332C3.84766 12.3687 3.97851 12.6042 4.18787 12.7089L8.29664 15.0643C8.506 15.169 8.76771 15.169 8.9509 15.0643L13.0335 12.7089C13.2429 12.6042 13.3737 12.3687 13.3737 12.1332V7.39632C13.3999 7.13462 13.269 6.92526 13.0597 6.82057Z" fill="#FFBB00"/>
<path d="M13.0584 12.6325C13.2677 12.5278 13.3986 12.2923 13.3986 12.0568V7.31991C13.3986 7.26757 13.3986 7.18906 13.3724 7.13672C13.2677 7.13672 13.163 7.16289 13.0584 7.21523L8.94959 9.57057C8.74023 9.67526 8.60938 9.91079 8.60938 10.1463V14.8832C8.60938 14.9355 8.60937 15.014 8.63555 15.0664C8.74023 15.0664 8.84491 15.0402 8.94959 14.9879L13.0584 12.6325Z" fill="#FFA10A"/>
<path d="M34.1003 0.515625H32.8703C32.2422 0.515625 31.7188 1.03903 31.7188 1.66713V2.45224C31.7188 3.08033 32.2422 3.60374 32.8703 3.60374H34.1003C34.7284 3.60374 35.2518 3.08033 35.2518 2.45224V1.66713C35.2518 1.01286 34.7284 0.515625 34.1003 0.515625Z" fill="#231F20"/>
</g>
<defs>
<clipPath id="clip0_62_13624">
<rect width="91" height="19.8634" fill="white" transform="translate(0 0.0703125)"/>
</clipPath>
</defs>
</svg>
