<?xml version="1.0" encoding="UTF-8"?>
<svg id="Layer_1" xmlns="http://www.w3.org/2000/svg" viewBox="0 0 347.13 95.37">
  <defs>
    <style>
      .cls-1 {
        fill: #2E39E6;
      }
    </style>
  </defs>
  <g>
    <path class="cls-1" d="M72.4,27.25l-.02.32s0,.03,0,.05v.09c.02-.2.02-.41.02-.61,0,.05,0,.1,0,.15Z"/>
    <path class="cls-1" d="M78.12,88.57l-5.72-60.85h0s0-.1,0-.1c0-.02,0-.03,0-.05l.02-.32c0-.05,0-.1,0-.15h0C72.41,13.43,62.3,1.8,48.89.03c-.13-.02-.26-.03-.4-.03H3.03C1.36,0,0,1.36,0,3.03v75.76c0,1.67,1.36,3.03,3.03,3.03h56.46l7.04,10.51c1.15,1.92,3.12,3.04,5.33,3.04.09,0,.17,0,.26,0,2.36-.09,4.44-1.45,5.44-3.53.47-.99.66-2.12.56-3.27ZM6.06,75.76V6.06h42.22c4.92.7,9.45,3.18,12.79,7,3.39,3.88,5.26,8.84,5.27,13.97,0,.02,0,.05,0,.07,0,.22,0,.45-.02.67h0c-.24,4.56-2.94,9.32-7.66,13.49-4.67,4.12-10.62,7-15.93,7.7-.01,0-.02,0-.03,0-.27.04-.54.12-.8.23-.03.01-.05.02-.08.04-.13.06-.25.13-.37.21,0,0,0,0,0,0-.04.03-.07.05-.11.08,0,0-.01,0-.02.01-.03.02-.05.04-.08.06-.03.02-.06.05-.09.07-.01,0-.02.02-.03.03-.04.03-.07.07-.11.1,0,0-.01.01-.02.02-.04.04-.07.08-.11.12-.04.04-.07.08-.1.12-.03.03-.06.07-.08.11-.02.02-.03.04-.05.07-.03.05-.07.1-.1.15-.02.03-.04.07-.06.1-.02.03-.03.05-.04.08-.03.06-.06.11-.08.17-.02.05-.05.11-.07.17-.02.05-.04.11-.06.16,0,.01,0,.02,0,.03-.01.04-.02.08-.03.12,0,.02-.01.05-.02.07,0,.03-.02.07-.02.1,0,.03-.01.06-.02.08,0,.02,0,.05-.01.07,0,.03-.01.07-.01.1,0,.02,0,.04,0,.06,0,.04,0,.08,0,.12-.01.24,0,.47.04.71,0,0,0,0,0,0,.02.11.05.21.08.32.01.04.02.08.04.11.02.07.05.14.08.2,0,0,0,0,0,0,.03.07.06.13.09.2.05.1.11.2.18.3l14.82,22.12H6.06ZM72.08,89.23s-.11.07-.2.08c-.07,0-.1,0-.16-.11-.03-.06-.07-.12-.11-.17l-7.97-11.89-15.53-23.17c5.11-1.53,10.31-4.42,14.56-8.17,1.87-1.65,3.49-3.4,4.84-5.21l4.56,48.55s0,.08,0,.1Z"/>
  </g>
  <g>
    <g>
      <path class="cls-1" d="M139.33,68.76c-9.57,0-17.35-7.79-17.35-17.35s7.79-17.34,17.35-17.34c8.91,0,16.5,6.94,17.28,15.79.05.58.08,1.08.08,1.55s-.02.98-.08,1.55l-.04.42c-.06.68-.62,1.19-1.3,1.19h-17.94c-3.13,0-6.19,1.05-7.45,2.54,1.99,3.28,5.61,5.33,9.45,5.33,3.25,0,6.32-1.42,8.41-3.91l.25-.3c.25-.29.61-.46,1-.46.23,0,.45.06.65.17l3.24,1.87c.33.19.56.51.63.89.07.37-.02.76-.26,1.05l-.33.42c-3.32,4.18-8.27,6.58-13.58,6.58ZM139.33,40.38c-5.74,0-10.48,4.4-10.99,10.01,2.51-1.39,5.65-2.15,9-2.15h12.57c-1.36-4.67-5.6-7.86-10.57-7.86Z"/>
      <path class="cls-1" d="M175.95,68.75c-9.38-.14-17.04-7.9-17.07-17.29-.03-9.59,7.76-17.41,17.34-17.41,6.04,0,11.73,3.21,14.86,8.38l.37.62c.16.26.24.57.2.87-.07.51-.41.91-.88,1.07l-3.86,1.31c-.22.08-.46.09-.7.04-.34-.07-.64-.3-.83-.59l-.23-.34c-2.01-2.98-5.35-4.76-8.94-4.76-.66,0-1.32.06-1.97.18-5.02.91-8.71,5.34-8.79,10.43-.03,1.77.38,3.5,1.22,5.12,1.87,3.57,5.52,5.79,9.53,5.79,3.59,0,6.93-1.78,8.94-4.76l.82-1.21,4.76,1.61c.29.1.55.28.72.54.28.43.28.96.02,1.39l-.4.65c-3.23,5.32-8.9,8.47-15.12,8.38Z"/>
      <path class="cls-1" d="M211.32,68.76c-9.57,0-17.35-7.79-17.35-17.35s7.79-17.34,17.35-17.34c8.91,0,16.5,6.94,17.28,15.79.05.58.08,1.08.08,1.55s-.02.98-.08,1.55l-.04.42c-.06.68-.62,1.19-1.3,1.19h-17.94c-3.13,0-6.19,1.05-7.45,2.54,1.99,3.28,5.61,5.33,9.45,5.33,3.25,0,6.32-1.42,8.41-3.91l.25-.3c.25-.29.61-.46,1-.46.23,0,.45.06.65.17l3.24,1.87c.33.19.56.51.63.89.07.37-.02.76-.26,1.05l-.33.42c-3.32,4.18-8.27,6.58-13.58,6.58ZM211.32,40.38c-5.74,0-10.48,4.4-10.99,10.01,2.51-1.39,5.65-2.15,9-2.15h12.57c-1.37-4.67-5.6-7.86-10.58-7.86Z"/>
      <path class="cls-1" d="M234.49,68.76c-.72,0-1.3-.58-1.3-1.3v-31.72c0-.72.58-1.3,1.3-1.3h3.83c.72,0,1.3.58,1.3,1.3v31.72c0,.72-.58,1.3-1.3,1.3h-3.83ZM236.41,29.49c-.94,0-1.88-.33-2.73-.95-.11-.08-.22-.19-.3-.3-1.04-1.43-1.23-3.12-.52-4.53.68-1.34,2.04-2.18,3.55-2.18.94,0,1.88.33,2.73.95.11.08.22.19.3.3,1.04,1.43,1.23,3.12.52,4.53-.68,1.34-2.04,2.18-3.55,2.18Z"/>
      <path class="cls-1" d="M244.6,81.28l-.09-.57s-.01-.08-.01-.26c-.03-.84-.08-15.15-.04-17.09.07-3.11.39-7.78,1.56-12.42-.14-.51-.26-1.03-.38-1.53l-.03-.11c-1.36-6.17-1.41-11.81-1.37-13.95.02-.72.6-1.29,1.3-1.29h3.84c.37,0,.72.16.97.43.25.27.37.64.33,1-.03.26-.05.53-.07.8-.12,1.53-.12,3.1-.01,4.64.75-.96,1.58-1.79,2.47-2.49.01-.01.03-.02.04-.04,2.98-2.64,6.87-4.09,10.94-4.09,2.8,0,5.54.71,7.94,2.05,5.68,3.18,9.16,9.95,8.46,16.45-.71,6.47-5.54,12.35-11.76,14.31-1.54.49-3.31.75-5.1.75-4.72,0-8.99-1.69-11.72-4.63-.18-.19-.34-.37-.49-.55l-.81-.98c-.06,1.11-.07,2.24-.02,3.35.01.34.03,2.4.06,5.02.03,3.63.07,8.14.12,9.85.01.36-.12.69-.37.95-.25.25-.58.39-.93.39h-4.82ZM252.58,51.55c1,4.92,5.51,10.02,11.32,10.02.45,0,.9-.03,1.35-.1,4.54-.63,8.38-4.52,8.94-9.06.57-4.54-2.21-9.26-6.47-10.99-1.25-.51-2.53-.76-3.8-.76-1.52,0-2.99.37-4.39,1.1l-.08.04c-3.3,1.73-5.91,5.36-6.84,9.47v.02s-.04.17-.04.17l.02.09Z"/>
      <path class="cls-1" d="M296.73,68.76c-6.43,0-11.66-5.23-11.66-11.66v-17.08h-3.16c-.72,0-1.3-.58-1.3-1.3v-2.98c0-.72.58-1.3,1.3-1.3h3.16v-11.6c0-.72.58-1.3,1.3-1.3h3.83c.72,0,1.3.58,1.3,1.3v11.6h5.7c.72,0,1.3.58,1.3,1.3v2.98c0,.72-.58,1.3-1.3,1.3h-5.71v16.91c0,2.93,2.36,5.33,5.28,5.38h1.37c.72,0,1.3.58,1.3,1.3v3.84c0,.72-.58,1.3-1.3,1.3h-1.44Z"/>
      <path class="cls-1" d="M304.44,68.76c-.72,0-1.3-.58-1.3-1.3V22.84c0-.72.58-1.3,1.3-1.3h3.83c.72,0,1.3.58,1.3,1.3v39.47h4.49s0,5.14,0,5.14c0,.72-.58,1.3-1.3,1.3h-8.32Z"/>
      <path class="cls-1" d="M322.33,79.81c-.44,0-.85-.22-1.09-.59-.24-.37-.28-.83-.1-1.24l5.38-12.11-13.32-29.98c-.18-.4-.14-.87.1-1.24.24-.37.65-.59,1.09-.59h4.32c.51,0,.98.3,1.19.77l10.21,22.96,10.19-22.96c.21-.47.68-.77,1.19-.77h4.33c.44,0,.85.22,1.09.59.24.37.28.84.1,1.24l-18.49,41.59-.69,1.55c-.21.47-.68.77-1.19.77h-4.32Z"/>
    </g>
    <path class="cls-1" d="M116.3,69.91c-.65,0-1.27-.26-1.72-.72-.46-.46-.71-1.08-.71-1.73,0-11.31-8.23-20.5-18.34-20.5h-4.05c-.64,0-1.16.52-1.16,1.16v19.36c0,1.34-1.09,2.43-2.43,2.43h-2.5c-1.34,0-2.43-1.09-2.43-2.43V16.52c0-1.34,1.09-2.43,2.43-2.43h19.24c9.11,0,16.6,7.3,16.69,16.26.07,6.59-3.83,12.57-9.79,15.21,6.15,5.27,9.79,13.37,9.79,21.88v.06c0,1.33-1.09,2.41-2.43,2.41h-2.58ZM104.68,39.51c4.93,0,9.05-3.91,9.19-8.73.07-2.45-.83-4.77-2.54-6.52-1.71-1.76-4-2.73-6.45-2.73h-14.49v17.98h14.28Z"/>
  </g>
</svg>